<svg preserveAspectRatio="none" width="100%" height="100%" overflow="visible" style="display: block;" viewBox="0 0 321.685 54" fill="none" xmlns="http://www.w3.org/2000/svg">
<g id="Group">
<path id="Vector" d="M49.194 22.5203C49.194 22.5584 47.5173 26.4832 44.126 34.2948C40.6965 42.2588 38.715 46.7552 38.2196 47.746C38.0672 48.0889 37.9529 48.2794 37.9148 48.3557C37.8386 48.47 37.6862 48.5843 37.3813 48.6986C36.9241 48.8891 35.6285 49.1178 33.5327 49.4988C31.5512 49.8037 30.3318 49.9561 29.9127 49.918C29.5316 49.8799 29.3411 49.8418 29.2649 49.8037C29.1887 49.7656 29.0744 49.6131 28.9219 49.3464C28.8076 49.1559 28.3123 47.9746 27.3596 45.7645C26.3689 43.402 25.3781 41.0394 24.3874 38.6769C23.3967 41.4205 22.3678 44.1641 21.3771 46.9077C21.0722 47.8222 20.5769 49.194 19.8529 50.9468C19.6623 51.2898 19.548 51.5184 19.4718 51.5946C19.3956 51.6708 19.2051 51.7851 18.8621 51.8995C18.2524 52.1281 17.0712 52.3948 15.3183 52.7378C13.1463 53.1569 11.8508 53.3475 11.3935 53.3094C11.0887 53.3094 10.8219 53.0807 10.6314 52.6616C3.5438 39.3628 0 32.2371 0 31.2083C0 29.7603 0.0381059 27.5502 0.152422 24.616C0.266738 21.6819 0.304841 19.5099 0.304841 18.0238C0.304841 17.4141 0.495368 17.0712 0.838316 16.995C1.86716 16.7663 3.42948 16.4996 5.52527 16.1948C7.62106 15.8518 9.18338 15.6232 10.2122 15.3945C10.6314 15.3183 10.8219 15.4327 10.8219 15.7756C10.8219 17.2236 10.7457 19.4337 10.6314 22.4059C10.479 25.3782 10.4409 27.5883 10.4409 29.0363C10.4409 29.5697 11.0886 31.2083 12.4223 33.8756C13.6036 36.2763 14.48 37.8767 15.0135 38.715C15.2802 39.1342 15.4708 39.3247 15.547 39.3247C15.6994 39.2866 16.0804 38.3721 16.652 36.5049C18.3668 31.2845 19.2051 28.236 19.2432 27.3215C19.3194 25.6449 19.3194 23.511 19.2813 20.9198C19.2432 17.1855 19.2051 15.0516 19.2051 14.5181C19.2051 14.1752 19.2432 13.9465 19.2813 13.8703C19.3194 13.7941 19.548 13.7179 19.891 13.5655C20.8055 13.2988 22.4059 12.9558 24.6923 12.5366C28.1598 11.927 29.8746 11.8889 29.8746 12.3842C29.8746 13.6036 29.8365 15.5089 29.7222 18.1C29.6459 20.615 29.6078 22.5202 29.6078 23.8158C29.6078 24.2731 29.6078 24.7304 29.6078 25.2257C29.6078 26.1402 30.5224 28.9601 32.4276 33.647C33.0754 35.2855 33.4565 36.0857 33.5708 36.0476C33.647 36.0476 33.8375 35.7809 34.1043 35.2474C34.5996 34.2567 35.438 32.3895 36.543 29.5316C37.8005 26.4451 38.4102 24.6541 38.4102 24.0826C38.4102 22.5965 38.334 20.3863 38.2196 17.4903C38.0672 14.5562 38.0291 12.3842 38.0291 10.8981C38.0291 10.5552 38.2196 10.3647 38.6388 10.3265C39.7058 10.1741 41.3062 9.86927 43.4782 9.45012C45.6502 9.03096 47.2506 8.76423 48.3176 8.61181C48.6605 8.5737 48.851 8.91664 48.851 9.64064C48.851 11.0886 48.8891 13.2225 49.0035 16.0804C49.1178 18.9383 49.194 21.0722 49.194 22.5203Z" fill="var(--fill-0, white)"/>
<path id="Vector_2" d="M84.4033 41.9921C84.4033 42.335 84.1747 42.5637 83.7174 42.7542C83.1839 42.9447 81.4692 43.1733 78.6113 43.4782C75.982 43.7449 74.3054 43.8592 73.5814 43.783C72.9717 43.7068 72.5525 43.3639 72.4001 42.678C71.7904 40.1249 71.2951 38.7912 70.9521 38.6388C70.6473 38.5626 68.2085 38.7531 63.6359 39.3247C60.5493 39.7058 58.8727 40.0106 58.6822 40.2011C58.3773 40.5441 58.0344 41.5729 57.6534 43.2495C57.3104 44.8119 56.8912 45.6883 56.3959 45.8788C55.7862 46.1075 53.6904 46.4504 50.1847 46.9458C47.403 47.3268 45.9931 47.2887 45.9931 46.7552C45.9931 46.298 48.0508 40.163 52.1662 28.3885C56.6245 15.6994 59.0632 8.72613 59.4443 7.46865C59.6729 6.74465 59.9016 6.3636 60.2064 6.32549C60.7018 6.24928 61.4639 6.21117 62.4927 6.17306C63.5216 6.13495 64.2837 6.09685 64.8171 6.02064C65.3125 5.94443 66.0365 5.83012 66.9892 5.6777C67.9418 5.48717 68.6658 5.37286 69.123 5.33475C69.466 5.29664 69.7708 5.56338 70.0757 6.13496C70.9521 7.96402 73.5814 14.2133 77.8873 24.959C82.2313 35.819 84.4033 41.4967 84.4033 41.9921ZM64.9696 19.2051C64.5885 20.0434 63.9407 21.8725 63.0262 24.6541C62.0355 27.6264 61.5401 29.3411 61.5401 29.8365C61.5401 30.1794 62.0736 30.2937 63.1786 30.1794C63.7502 30.1413 64.6647 30.0651 65.9603 29.8746C67.1797 29.7222 67.8275 29.4935 67.9418 29.1887C67.9799 29.1125 67.9799 28.9601 67.9799 28.8076C67.9799 28.198 67.5607 26.5975 66.7224 23.9683C65.9603 21.4914 65.3506 19.8529 64.9696 19.2051Z" fill="var(--fill-0, white)"/>
<path id="Vector_3" d="M112.068 12.0413C112.068 12.8415 111.915 13.5274 111.611 14.1371C109.21 19.0146 105.933 24.1969 101.817 29.7221C101.246 30.5224 100.941 31.2464 100.941 31.8561C100.941 32.8087 100.979 34.2567 101.093 36.2001C101.208 38.1434 101.246 39.5533 101.246 40.506C101.246 40.8489 101.17 41.0394 101.017 41.1157C100.979 41.1538 100.751 41.1919 100.293 41.3062C99.6455 41.4586 98.0069 41.6491 95.3396 41.8778C92.6722 42.1064 90.9955 42.1826 90.2715 42.1445C89.7762 42.1064 89.5094 41.8778 89.5094 41.4205C89.5094 40.4679 89.5856 38.9817 89.7381 36.9622C89.8905 34.9807 89.9667 33.4946 89.9667 32.5039C89.9667 31.9323 89.7381 31.3226 89.3189 30.6748C87.1088 27.7407 83.9461 23.2824 79.8307 17.2617C79.4115 16.5758 79.1829 16.0423 79.1829 15.5851C79.1829 14.48 79.1448 12.8415 79.0305 10.6695C78.9162 8.49749 78.8781 6.85896 78.8781 5.75391C78.8781 5.14422 79.0686 4.83938 79.4115 4.80128C80.5166 4.68696 82.2313 4.57265 84.4795 4.42022C86.7278 4.30591 88.4425 4.19158 89.5857 4.07727C90.0048 4.03916 90.2334 4.15349 90.2334 4.42022C90.2334 5.33475 90.1953 6.74465 90.1191 8.61181C90.0429 10.479 90.0048 11.8889 90.0048 12.8034C90.0048 13.3369 90.805 14.6325 92.4054 16.6901C93.701 18.2906 94.7299 19.5099 95.5682 20.3863C96.3303 19.4337 97.321 18.0619 98.5404 16.1948C100.103 13.8703 100.903 12.4986 100.903 12.0413C100.903 11.1268 100.827 9.75496 100.712 7.92591C100.56 6.09685 100.522 4.72506 100.522 3.81054C100.522 3.42948 100.598 3.20084 100.751 3.12463C100.979 3.12463 101.208 3.08654 101.436 3.08654C102.541 3.01033 104.18 2.81979 106.39 2.59116C108.6 2.32442 110.239 2.17201 111.382 2.0958C111.763 2.05769 111.915 2.43874 111.915 3.23896C111.915 4.19159 111.915 5.67769 111.953 7.58296C112.068 9.56444 112.068 11.0506 112.068 12.0413Z" fill="var(--fill-0, white)"/>
<path id="Vector_4" d="M156.651 38.1434C156.651 38.715 156.384 38.9818 155.851 38.9818C152.612 39.0199 149.373 39.058 146.134 39.0961C145.6 39.0961 145.334 38.7912 145.334 38.1434C145.334 36.3144 145.41 33.5327 145.524 29.8365C145.677 26.1403 145.715 23.3967 145.715 21.5295C145.715 20.996 145.639 20.7293 145.486 20.6912C145.296 20.8055 144.038 23.6634 141.79 29.2268C140.456 32.5038 139.161 35.7809 137.827 39.058C137.636 39.4771 137.408 39.7438 137.141 39.8201C137.065 39.8582 136.684 39.8582 136.036 39.8963C135.083 39.9344 134.512 39.7439 134.321 39.4009C133.331 37.4194 132.035 34.5615 130.435 30.7891C128.72 26.7881 127.424 23.9301 126.548 22.1773C126.51 22.1011 126.433 21.9868 126.281 21.8725C126.167 22.0249 126.091 22.2916 126.091 22.6727C126.091 24.4636 126.129 27.131 126.243 30.7129C126.319 34.2948 126.395 36.9622 126.395 38.7531C126.395 39.4009 126.129 39.7058 125.633 39.7439C122.585 39.8963 119.498 40.0487 116.45 40.2011C116.069 40.2392 115.84 40.163 115.764 40.0487C115.688 39.9344 115.65 39.7438 115.65 39.439C115.65 37.4575 115.764 34.4472 115.954 30.4462C116.145 26.4451 116.259 23.4729 116.259 21.4533C116.259 19.3194 116.183 15.3946 115.993 9.56444C115.993 8.04023 115.878 5.79201 115.764 2.81979C115.764 2.66737 115.764 2.51495 115.726 2.36252C115.726 1.98147 116.107 1.79095 116.869 1.75285C117.86 1.71474 119.384 1.60042 121.404 1.40989C123.423 1.25747 124.947 1.14316 125.938 1.10505C126.129 1.10505 126.433 1.448 126.776 2.21011C129.444 7.92591 132.111 13.6798 134.817 19.4337C135.388 20.615 135.845 21.1866 136.265 21.1484C136.455 21.1484 136.912 20.4626 137.56 19.0527C139.427 15.1659 142.133 9.33581 145.791 1.52421C146.096 0.800213 146.439 0.457258 146.82 0.457258C147.353 0.457258 148.153 0.457261 149.22 0.495366C150.287 0.533471 151.088 0.533474 151.659 0.533474C152.116 0.533474 152.802 0.457265 153.755 0.381055C154.708 0.266739 155.394 0.228636 155.851 0.228636C156.384 0.228636 156.689 0.457261 156.689 0.876419C156.689 3.01032 156.613 6.24928 156.46 10.5171C156.308 14.7849 156.232 18.0238 156.232 20.1577C156.232 22.1392 156.308 25.1114 156.46 29.1125C156.575 33.1897 156.651 36.162 156.651 38.1434Z" fill="var(--fill-0, white)"/>
<path id="Vector_5" d="M197.729 39.1342C197.729 39.4771 197.5 39.6676 197.043 39.782C196.509 39.8963 194.794 39.8963 191.937 39.782C189.307 39.6676 187.631 39.5533 186.869 39.3628C186.259 39.2104 185.84 38.7912 185.687 38.1053C185.078 35.476 184.582 34.0281 184.239 33.8375C183.934 33.6851 181.496 33.5708 176.885 33.4565C173.76 33.3803 172.122 33.4565 171.893 33.6089C171.588 33.9137 171.245 34.8664 170.864 36.5049C170.521 38.0291 170.102 38.8293 169.607 38.9436C168.997 39.0961 166.901 39.1342 163.319 39.1342C160.5 39.1342 159.128 38.8674 159.128 38.334C159.128 37.8767 161.186 32.0085 165.339 20.8817C169.835 8.80234 172.274 2.2101 172.655 1.02884C172.884 0.342941 173.151 0 173.417 0C173.913 0 174.675 0.0762106 175.704 0.190527C176.733 0.304843 177.533 0.381053 178.028 0.381053C178.523 0.381053 179.247 0.381051 180.2 0.342946C181.153 0.30484 181.877 0.304838 182.372 0.304838C182.715 0.304838 183.058 0.609678 183.325 1.21936C184.239 3.16274 186.83 9.79307 191.174 21.1866C195.557 32.6563 197.729 38.6769 197.729 39.1342ZM178.257 13.5655C177.876 14.3657 177.228 16.0804 176.313 18.7478C175.323 21.5676 174.827 23.2443 174.827 23.7396C174.827 24.0826 175.361 24.2731 176.466 24.3112C177.037 24.3493 177.952 24.3874 179.286 24.4255C180.505 24.4636 181.153 24.3112 181.305 24.0445C181.343 23.9683 181.343 23.8158 181.343 23.6634C181.343 23.0537 180.924 21.3771 180.086 18.6716C179.247 16.0042 178.638 14.2895 178.257 13.5655Z" fill="var(--fill-0, white)"/>
<path id="Vector_6" d="M233.776 40.8108C233.776 41.611 233.433 42.0683 232.747 42.2588C232.214 42.3731 230.766 42.335 228.403 42.1445C226.155 41.954 224.517 41.7253 223.45 41.4586C222.954 41.3443 222.611 41.1919 222.459 41.0775C222.306 40.9632 222.116 40.6965 221.887 40.2392C220.554 37.6862 219.22 35.1331 217.924 32.6182C215.752 28.5409 214.457 26.2546 214.038 25.8354C212.056 26.407 211.065 26.8643 211.065 27.1691C211.065 28.5409 211.103 30.5986 211.218 33.3803C211.332 36.162 211.37 38.2196 211.37 39.6295C211.37 40.2011 211.142 40.506 210.646 40.5441C209.694 40.6203 207.979 40.5822 205.502 40.4678C203.139 40.3154 201.539 40.163 200.777 40.0106C200.243 39.8582 199.977 39.5914 199.977 39.1342C199.977 37.1527 200.091 34.1805 200.282 30.2175C200.472 26.2546 200.586 23.2823 200.586 21.3009C200.586 19.167 200.51 16.0042 200.32 11.7364C200.129 7.46863 200.053 4.30589 200.053 2.17199C200.053 1.75283 200.243 1.56231 200.625 1.60041C201.196 1.63852 202.034 1.71473 203.178 1.82904C204.321 1.94336 205.159 2.01957 205.731 2.05768C206.302 2.09578 207.179 2.09579 208.322 2.13389C209.465 2.13389 210.341 2.17199 210.913 2.2101C211.218 2.2482 211.37 2.40062 211.37 2.74357C211.37 4.07726 211.294 6.13494 211.18 8.84042C211.027 11.5459 210.989 13.6036 210.989 14.9373C210.989 16.4996 211.408 17.2998 212.285 17.376C214.457 17.5284 216.171 17.0331 217.353 15.928C218.267 15.1278 219.144 13.6036 220.058 11.3554C220.63 9.64064 221.621 7.08758 222.954 3.73431C223.145 3.27705 223.564 3.08652 224.174 3.16273C224.631 3.20084 225.355 3.27705 226.307 3.42947C227.26 3.58189 227.984 3.6581 228.479 3.6962C228.975 3.73431 229.699 3.77242 230.69 3.84863C231.68 3.88674 232.404 3.96295 232.862 4.00105C233.281 4.03916 233.509 4.26779 233.509 4.68694C233.509 5.29663 233.128 6.70653 232.366 8.99285C230.118 15.6994 227.489 19.7767 224.555 21.2247C223.945 21.5295 223.64 21.7962 223.64 21.9868C223.64 21.9868 225.317 24.8447 228.708 30.5986C232.099 36.3525 233.776 39.782 233.776 40.8108Z" fill="var(--fill-0, white)"/>
<path id="Vector_7" d="M264.184 37.2289C264.184 38.0291 264.032 39.439 263.727 41.4967C263.384 43.7449 263.117 45.0405 262.851 45.4597C262.622 45.7645 262.317 45.9169 261.936 45.8788C261.784 45.8407 261.479 45.8026 261.098 45.6883C259.764 45.3453 255.877 44.7356 249.437 44.0116C248.028 43.8592 245.932 43.6306 243.15 43.2877C240.368 42.9828 238.311 42.7542 236.901 42.6399C236.291 42.5636 235.986 42.2969 235.986 41.7634C235.986 39.7057 236.101 36.6573 236.329 32.58C236.558 28.5028 236.672 25.4544 236.672 23.3967C236.672 21.3009 236.558 17.4141 236.329 11.7364C236.291 10.2884 236.177 8.07832 236.024 5.18232C236.024 5.068 236.024 4.91558 235.986 4.80127C235.948 4.38211 236.177 4.19158 236.672 4.22969C238.006 4.344 240.064 4.61074 242.769 4.95368C245.475 5.29663 247.494 5.56337 248.866 5.71579C250.2 5.86821 252.219 6.05874 254.887 6.28737C257.554 6.55411 259.573 6.74463 260.907 6.93515C261.86 7.04947 262.393 7.46864 262.546 8.23075C262.622 8.6499 262.774 9.94548 262.965 12.1175C263.155 14.2514 263.27 15.5851 263.27 16.0423C263.27 16.4234 263.079 16.5758 262.736 16.5377C262.622 16.5377 262.431 16.4996 262.165 16.4234C257.325 15.3945 252.943 14.6705 249.095 14.2514C248.142 14.1371 247.532 14.2895 247.304 14.7467C247.227 14.9373 247.151 15.6613 247.151 16.8425C247.151 18.1 247.342 18.9383 247.685 19.3575C247.989 19.7386 248.599 19.9672 249.476 20.0815C249.666 20.1196 250.009 20.1196 250.543 20.1577C251.076 20.1958 251.495 20.2339 251.838 20.272C254.124 20.5388 256.449 20.7674 258.811 20.9198C259.002 20.9198 259.497 20.9579 260.297 20.9579C260.907 20.9579 261.403 20.996 261.784 21.0341C262.203 21.0722 262.431 21.339 262.431 21.7581C262.431 21.3771 262.279 22.7489 261.936 25.8735C261.784 27.3215 261.707 28.7695 261.707 30.2175C261.707 30.5986 261.441 30.7129 260.907 30.6748C260.069 30.4842 259.269 30.2937 258.43 30.1032C257.401 29.8746 255.039 29.5316 251.305 29.0744C250.352 28.9601 249.361 28.8457 248.409 28.7314C247.647 28.6552 247.227 28.7695 247.113 29.1506C247.113 29.2268 247.075 29.7984 247.075 30.8272C247.075 32.199 247.151 33.1135 247.342 33.5327C247.647 34.2567 248.828 34.7902 250.847 35.1712C250.809 35.1712 252.143 35.3236 254.848 35.6285C255.801 35.7428 257.249 35.819 259.154 35.8952C261.06 35.9714 262.469 36.0476 263.422 36.2C263.994 36.2 264.184 36.5811 264.184 37.2289Z" fill="var(--fill-0, white)"/>
<path id="Vector_8" d="M299.241 50.8706C299.241 50.9849 299.051 51.0611 298.708 51.0611C298.022 51.0611 296.269 50.7944 293.525 50.3372C291.163 49.918 289.524 49.6132 288.686 49.3845C288.305 49.2702 288.076 49.194 288 49.1559C287.886 49.0797 287.771 48.8891 287.619 48.5462C287.352 47.7841 286.933 46.679 286.438 45.1929C285.714 43.2496 284.609 40.3916 283.123 36.5811C282.78 35.819 282.056 35.3236 280.874 35.0569C281.408 35.1712 280.493 35.0569 278.055 34.6758C277.788 34.6377 277.635 35.095 277.635 36.0095C277.635 37.267 277.75 39.1342 277.978 41.611C278.207 44.126 278.321 45.9931 278.321 47.2125C278.321 47.5174 278.245 47.7079 278.093 47.7079C277.826 47.6698 277.597 47.6698 277.331 47.6317C276.264 47.5554 274.587 47.3268 272.301 47.022C269.709 46.6409 268.147 46.3742 267.614 46.2218C267.08 46.0313 266.813 45.7264 266.813 45.2691C266.813 43.2496 266.89 40.2392 267.118 36.2382C267.309 32.199 267.385 29.1887 267.423 27.1691C267.423 19.4718 267.233 13.4131 266.89 9.03096C266.89 8.91665 266.89 8.76423 266.852 8.64991C266.852 8.34507 267.118 8.15455 267.728 8.15455C268.3 8.11644 271.119 8.38318 276.073 8.99287C279.426 9.41203 282.132 9.79308 284.113 10.0979C288.267 10.7457 291.62 12.2699 294.249 14.5562C297.222 17.1855 298.67 20.5007 298.67 24.5017C298.67 27.1691 298.288 29.2268 297.526 30.6748C296.764 32.1228 295.354 33.4184 293.297 34.5615C292.878 34.7902 292.687 35.0188 292.687 35.2855C292.687 35.2855 293.792 37.7243 296.002 42.7161C298.136 47.6698 299.241 50.4133 299.241 50.8706ZM287.81 24.3874C287.81 22.1773 287.086 20.5007 285.638 19.3956C284.494 18.5573 282.742 17.9476 280.341 17.6047C278.626 17.3379 277.712 17.4903 277.597 17.9857C277.483 18.5954 277.445 20.3864 277.445 23.3205C277.445 23.7396 277.445 24.3493 277.483 25.1876C277.483 26.026 277.521 26.6356 277.521 27.0167C277.521 27.0929 277.826 27.2453 278.398 27.4358C279.503 27.7788 280.684 28.0074 281.903 28.1979C285.828 28.8457 287.81 27.5883 287.81 24.3874Z" fill="var(--fill-0, white)"/>
<path id="Vector_9" d="M321.685 42.8685C321.685 46.5647 320.161 49.4226 317.036 51.4422C314.331 53.2331 311.016 54.0714 307.129 53.9952C306.977 53.9952 306.862 53.9571 306.786 53.9571C306.367 53.8809 305.452 52.4329 304.004 49.6131C302.556 46.7933 301.87 45.0786 301.87 44.5451C301.87 44.3546 302.023 44.2403 302.29 44.2403C304.919 44.126 306.672 43.9354 307.51 43.6687C309.377 43.059 310.33 41.8396 310.33 40.0106C310.33 38.8293 309.72 37.3813 308.501 35.7047C306.367 32.8087 305.224 31.2464 305.033 30.9415C303.776 28.8076 303.166 26.5975 303.166 24.3112C303.166 20.9579 304.69 18.4811 307.739 16.8425C310.254 15.4708 313.302 14.8992 316.922 15.0897C317.113 15.1278 317.265 15.1278 317.379 15.1659C317.646 15.204 317.875 15.4708 318.027 15.9661C318.484 17.376 319.589 20.0053 321.304 23.8539C321.342 23.9682 321.38 24.0826 321.38 24.1588C321.38 24.4636 321.228 24.5779 320.885 24.5398C320.733 24.5017 320.504 24.4255 320.161 24.3112C319.818 24.1969 319.551 24.1207 319.361 24.0826C318.065 23.8158 316.922 23.892 315.931 24.3112C314.75 24.7685 314.178 25.6068 314.178 26.8642C314.178 27.9693 314.826 29.4554 316.122 31.3607C318.408 34.7521 319.628 36.5049 319.742 36.6954C321.037 38.7531 321.685 40.887 321.685 42.8685Z" fill="var(--fill-0, white)"/>
</g>
</svg>
