<svg preserveAspectRatio="none" width="100%" height="100%" overflow="visible" style="display: block;" viewBox="0 0 20.7778 22" fill="none" xmlns="http://www.w3.org/2000/svg">
<path id="Profile" d="M6.72222 4.88889C6.72222 3.91643 7.10853 2.9838 7.79616 2.29616C8.4838 1.60853 9.41643 1.22222 10.3889 1.22222C11.3614 1.22222 12.294 1.60853 12.9816 2.29616C13.6692 2.9838 14.0556 3.91643 14.0556 4.88889C14.0556 5.86135 13.6692 6.79398 12.9816 7.48161C12.294 8.16925 11.3614 8.55556 10.3889 8.55556C9.41643 8.55556 8.4838 8.16925 7.79616 7.48161C7.10853 6.79398 6.72222 5.86135 6.72222 4.88889V4.88889ZM10.3889 0C9.09228 0 7.84877 0.515078 6.93192 1.43192C6.01508 2.34877 5.5 3.59227 5.5 4.88889C5.5 6.1855 6.01508 7.42901 6.93192 8.34586C7.84877 9.2627 9.09228 9.77778 10.3889 9.77778C11.6855 9.77778 12.929 9.2627 13.8459 8.34586C14.7627 7.42901 15.2778 6.1855 15.2778 4.88889C15.2778 3.59227 14.7627 2.34877 13.8459 1.43192C12.929 0.515078 11.6855 0 10.3889 0V0ZM17.2089 14.85C18.5778 15.8522 19.4456 17.5878 19.5433 20.7778H1.23444C1.33222 17.6 2.2 15.8522 3.55667 14.85C5.08444 13.75 7.33333 13.4444 10.3889 13.4444C13.4444 13.4444 15.7056 13.7622 17.2089 14.85ZM10.3889 12.2222C7.33333 12.2222 4.70556 12.5156 2.84778 13.8722C0.941111 15.2533 0 17.6367 0 21.3889V22H20.7778V21.3889C20.7778 17.6367 19.8367 15.2533 17.93 13.8722C16.0722 12.5278 13.4444 12.2222 10.3889 12.2222Z" fill="var(--fill-0, black)"/>
</svg>
