<svg preserveAspectRatio="none" width="100%" height="100%" overflow="visible" style="display: block;" viewBox="0 0 180 48.6" fill="none" xmlns="http://www.w3.org/2000/svg">
<g id="Component 1">
<path id="Vector" d="M101.97 16.38C101.97 11.16 102.06 6.3 102.33 1.8L88.56 4.41V5.67L89.91 5.85C90.9 5.94 91.53 6.3 91.89 6.84C92.25 7.47 92.52 8.37 92.7 9.72C92.88 12.33 93.06 18.27 92.97 27.63C92.97 36.9 92.88 42.75 92.7 45C97.65 46.08 101.52 46.53 104.4 46.53C109.8 46.53 114.03 45 117.09 41.85C120.15 38.79 121.77 34.47 121.77 29.16C121.77 24.93 120.6 21.42 118.26 18.63C115.92 15.84 112.95 14.49 109.44 14.49C107.1 14.49 104.67 15.12 101.97 16.38ZM102.24 44.1C102.06 41.22 101.88 32.58 101.88 18.45C102.69 18.18 103.77 18 105.12 18C107.28 18 108.99 19.08 110.25 21.33C111.51 23.58 112.14 26.28 112.14 29.7C112.14 33.93 111.42 37.35 109.98 40.23C108.54 43.02 106.74 44.46 104.49 44.46C103.77 44.28 103.05 44.19 102.24 44.1ZM36.9 2.7H0.9V4.5L2.79 4.68C4.23 4.95 5.22 5.49 5.85 6.3C6.48 7.2 6.84 8.64 6.93 10.62C7.65 20.34 7.65 29.43 6.93 37.8C6.75 39.78 6.39 41.22 5.85 42.12C5.22 43.02 4.23 43.56 2.79 43.74L0.9 44.01V45.81H24.12V44.01L21.69 43.83C21.0971 43.7804 20.5203 43.6113 19.9944 43.3328C19.4684 43.0545 19.0044 42.6725 18.63 42.21C18 41.31 17.64 39.87 17.55 37.89C17.28 34.29 17.1 30.15 17.1 25.56L21.96 25.65C24.57 25.74 26.37 27.72 27.27 31.68H29.07V17.01H27.27C26.37 20.88 24.66 22.86 21.96 22.95L17.1 23.04C17.1 14.94 17.28 9.18 17.55 5.67H24.66C29.7 5.67 33.12 8.91 35.1 15.39L37.26 14.76L36.9 2.7ZM32.67 30.42C32.67 35.1 34.02 38.97 36.63 42.03C39.24 45.09 43.11 46.53 47.97 46.53C52.83 46.53 56.79 45 59.67 41.85C62.55 38.79 63.9 34.92 63.9 30.24C63.9 25.56 62.55 21.69 59.94 18.63C57.33 15.57 53.46 14.13 48.6 14.13C43.74 14.13 39.78 15.66 36.9 18.81C34.02 21.87 32.67 25.74 32.67 30.42ZM52.74 20.16C53.82 22.77 54.27 26.19 54.27 30.33C54.27 39.87 52.29 44.55 48.42 44.55C46.44 44.55 44.91 43.2 43.83 40.5C42.75 37.8 42.3 34.38 42.3 30.33C42.3 20.88 44.28 16.2 48.15 16.2C50.13 16.11 51.66 17.46 52.74 20.16ZM128.79 42.03C131.76 45 135.54 46.53 140.04 46.53C142.83 46.53 145.26 45.99 147.42 44.82C149.58 43.74 151.29 42.39 152.46 40.77L151.56 39.69C149.58 41.22 147.33 41.94 144.72 41.94C141.12 41.94 138.33 40.77 136.44 38.34C134.46 35.91 133.56 32.85 133.74 28.89H153C153 24.57 151.92 21.06 149.67 18.27C147.42 15.57 144.27 14.22 140.22 14.22C135.18 14.22 131.31 15.84 128.52 18.99C125.73 22.14 124.38 26.01 124.38 30.6C124.38 35.28 125.82 39.06 128.79 42.03ZM135.45 19.44C136.44 17.28 137.7 16.2 139.41 16.2C142.11 16.2 143.46 19.62 143.46 26.55L133.92 26.73C134.01 24.03 134.46 21.6 135.45 19.44ZM177.21 15.84C174.78 14.76 171.72 14.13 168.03 14.13C164.25 14.13 161.28 15.12 159.03 17.01C156.78 18.9 155.61 21.24 155.61 24.03C155.61 26.46 156.33 28.35 157.68 29.7C159.03 31.05 161.19 32.22 163.98 33.21C166.5 34.11 168.3 35.01 169.2 35.82C170.1 36.72 170.64 37.71 170.64 39.06C170.64 40.32 170.19 41.49 169.2 42.39C168.3 43.38 167.04 43.83 165.42 43.83C161.46 43.83 158.49 40.95 156.42 35.19L154.89 35.64L155.25 44.64C158.49 45.9 162.09 46.53 166.05 46.53C170.19 46.53 173.34 45.63 175.68 43.74C178.02 41.94 179.19 39.33 179.19 36.09C179.19 33.93 178.65 32.13 177.48 30.78C176.31 29.43 174.42 28.26 171.72 27.18C168.75 26.1 166.68 25.11 165.6 24.21C164.52 23.31 163.98 22.23 163.98 20.88C163.98 19.53 164.34 18.45 165.15 17.55C165.96 16.65 166.95 16.29 168.21 16.29C171.81 16.29 174.42 18.9 176.04 24.03L177.57 23.58L177.21 15.84ZM90.63 15.03C89.37 14.4 88.02 14.13 86.49 14.13C84.96 14.13 83.43 14.76 81.72 16.02C80.01 17.28 78.75 18.99 77.76 21.33L77.85 14.13L64.17 16.83V18.09L65.52 18.18C67.23 18.36 68.22 19.71 68.4 22.14C68.94 27.72 68.94 33.66 68.4 39.96C68.22 42.39 67.23 43.65 65.52 43.92L64.17 44.1V45.81H83.25V44.1L80.82 43.92C79.11 43.74 78.12 42.39 77.94 39.96C77.4 34.74 77.31 29.16 77.76 23.4C78.3 22.5 79.47 21.96 81.27 21.78C83.07 21.6 85.14 22.14 87.3 23.4L90.63 15.03Z" fill="var(--fill-0, #B8B8B8)"/>
</g>
</svg>
