<svg preserveAspectRatio="none" width="100%" height="100%" overflow="visible" style="display: block;" viewBox="0 0 22 22" fill="none" xmlns="http://www.w3.org/2000/svg">
<path id="Search" fill-rule="evenodd" clip-rule="evenodd" d="M14.0153 14.8404C12.5291 16.1355 10.5861 16.9199 8.45994 16.9199C3.78765 16.9199 0 13.1322 0 8.45994C0 3.78765 3.78765 0 8.45994 0C13.1322 0 16.9199 3.78765 16.9199 8.45994C16.9199 10.5861 16.1355 12.5291 14.8404 14.0153L22 21.1749L21.1749 22L14.0153 14.8404ZM15.753 8.45994C15.753 12.4878 12.4878 15.753 8.45994 15.753C4.4321 15.753 1.16689 12.4878 1.16689 8.45994C1.16689 4.4321 4.4321 1.16689 8.45994 1.16689C12.4878 1.16689 15.753 4.4321 15.753 8.45994Z" fill="var(--fill-0, black)"/>
</svg>
